<svg height="368pt" viewBox="0 -36 368.9002 368" width="368pt" xmlns="http://www.w3.org/2000/svg"><path d="m367.179688 177.636719c-.253907.757812-.507813 1.582031-.824219 2.34375-4.445313 11.640625-11.585938 22.0625-20.84375 30.40625-28.378907 26.164062-70 32.054687-101.421875 14.128906l-18.839844-46.882813h141.929688zm0 0" fill="#527f72"/><path d="m259.101562 188.214844c15.617188 4.039062 31.640626 6.289062 47.765626 6.714844 25.59375 0 54.164062-5.765626 60.308593-17.292969 13.9375-26.039063-56.253906-36.933594-70.191406-38.519531-9.25-1.011719-18.496094-1.582032-27.746094-1.835938zm0 0" fill="#f9eab0"/><path d="m84.808594 285.457031c30.851562 10.324219 67.464844 16.660157 97.304687 3.105469 8.609375-4.023438 16.640625-9.179688 23.882813-15.332031 21.003906-18.460938 37.148437-41.804688 47.003906-67.976563 23.25-58.027344 26.292969-134.363281-12.859375-185.804687l-.0625-.0625zm0 0" fill="#4c8056"/><path d="m45.214844 271.667969c13.253906 7.703125 27.96875 12.5625 43.203125 14.265625 48.519531 5.523437 89.210937-30.097656 114.480469-73.429688 15.011718-26.8125 26.632812-55.386718 34.589843-85.066406 7.601563-26.605469 13.304688-54.910156 10.585938-81.089844-1.648438-15.792968-6.96875-31.902344-20.511719-39.832031l-.9375-.546875.09375.058594-.9375-.515625c-13.570312-7.925781-31.566406-5.433594-47.695312 0-27.109376 10.324219-52.3125 25.078125-74.582032 43.660156-25.210937 19.066406-48.09375 41.027344-68.183594 65.429687-31.441406 39.722657-48.734374 89.015626-22.503906 127.167969 8.496094 12.25 19.589844 22.472657 32.492188 29.941407zm0 0" fill="#71c285"/><path d="m59.453125 250.90625c-10.570313-6.09375-19.660156-14.457031-26.605469-24.492188-24.5625-35.792968 5.796875-81.296874 19.953125-99.210937 18.605469-22.546875 39.792969-42.824219 63.128907-60.417969 16.296874-12.726562 40.824218-30.59375 66.222656-39.136718 9.183594-3.078126 21.792968-5.824219 29.449218-1.351563l1.773438 1.039063c7.667969 4.480468 10.398438 16.179687 11.339844 25.214843 2.535156 24.859375-4.332032 53.023438-9.746094 72.046875-7.320312 27.472656-18.03125 53.925782-31.886719 78.746094-11.402343 19.523438-42.800781 64.421875-88.273437 59.246094-12.46875-1.382813-24.515625-5.363282-35.355469-11.683594zm0 0" fill="#f9eab0"/><path d="m154.136719 189.03125c-15.679688 22.960938-45.140625 31.785156-65.8125 19.703125-20.671875-12.078125-24.707031-40.480469-9.042969-63.445313 15.667969-22.964843 45.144531-31.78125 65.816406-19.703124 20.671875 12.082031 24.71875 40.488281 9.039063 63.445312zm0 0" fill="#7f6e5d"/><path d="m92.035156 180.886719c-.230468 0-.460937-.015625-.691406-.039063-3.472656-.378906-5.980469-3.496094-5.609375-6.96875 3.46875-32.019531 28.4375-37.882812 41.175781-36.527344 3.480469.367188 6.003906 3.484376 5.632813 6.964844-.363281 3.480469-3.484375 6.003906-6.964844 5.632813-2.53125-.25-24.339844-1.5-27.238281 25.296875-.355469 3.214844-3.074219 5.640625-6.304688 5.640625zm0 0" fill="#cbb292"/></svg>