<svg width="512" height="512" viewBox="0 0 512 512" fill="none" xmlns="http://www.w3.org/2000/svg">
<g clip-path="url(#clip0)">
<path d="M316.998 166H166.998C158.707 166 151.998 159.291 151.998 151V91C151.998 82.709 158.707 76 166.998 76H316.998C325.289 76 331.998 82.709 331.998 91V151C331.998 159.291 325.289 166 316.998 166Z" fill="#4C8056"/>
<path d="M436.998 166H316.998C308.707 166 301.998 159.291 301.998 151V61C301.998 52.709 308.707 46 316.998 46H436.998C445.289 46 451.998 52.709 451.998 61V151C451.998 159.291 445.289 166 436.998 166Z" fill="#8AE68A"/>
<path d="M436.998 46H376.998V166H436.998C445.289 166 451.998 159.291 451.998 151V61C451.998 52.709 445.289 46 436.998 46Z" fill="#60BF80"/>
<path d="M90.059 135.996L65.543 46H15C6.709 46 0 39.291 0 31C0 22.709 6.709 16 15 16H76.998C83.766 16 89.684 20.526 91.471 27.06L124.166 147.06L90.059 135.996Z" fill="#80334D"/>
<path d="M406.998 406H166.998C158.736 406 151.998 399.276 151.998 391C151.998 383.251 157.799 376.835 165.475 376.073C173.707 375.253 179.743 367.899 178.893 359.652C178.102 351.42 170.719 345.692 162.487 346.219C139.401 348.519 121.999 367.767 121.999 390.999C121.999 415.813 142.185 435.999 166.999 435.999H406.999C415.29 435.999 421.999 429.29 421.999 420.999C421.999 412.708 415.289 406 406.998 406V406Z" fill="#80334D"/>
<path d="M406.998 406H316.998V436H406.998C415.289 436 421.998 429.291 421.998 421C421.998 412.709 415.289 406 406.998 406Z" fill="#59243F"/>
<path d="M166.998 375.707C160.289 375.707 154.312 371.239 152.525 364.662L90.041 136H496.998C501.393 136 505.582 137.934 508.453 141.303C511.295 144.672 512.525 149.111 511.793 153.461L481.793 333.461C480.68 340.155 475.231 345.253 468.463 345.927C124.91 379.918 170.6 375.707 166.998 375.707V375.707Z" fill="#A16B4E"/>
<path d="M496.998 136H316.998V360.938C356.389 357.025 405.909 352.116 468.463 345.927C475.231 345.253 480.68 340.156 481.793 333.461L511.793 153.461C512.525 149.11 511.295 144.672 508.453 141.303C505.582 137.934 501.392 136 496.998 136V136Z" fill="#A16B4E"/>
<path d="M406.998 496C382.184 496 361.998 475.814 361.998 451C361.998 426.186 382.184 406 406.998 406C431.812 406 451.998 426.186 451.998 451C451.998 475.814 431.812 496 406.998 496Z" fill="#59243F"/>
<path d="M406.998 466C415.282 466 421.998 459.284 421.998 451C421.998 442.716 415.282 436 406.998 436C398.714 436 391.998 442.716 391.998 451C391.998 459.284 398.714 466 406.998 466Z" fill="#D9E5FF"/>
<path d="M196.998 496C172.184 496 151.998 475.814 151.998 451C151.998 426.186 172.184 406 196.998 406C221.812 406 241.998 426.186 241.998 451C241.998 475.814 221.812 496 196.998 496Z" fill="#80334D"/>
<path d="M196.998 466C205.282 466 211.998 459.284 211.998 451C211.998 442.716 205.282 436 196.998 436C188.714 436 181.998 442.716 181.998 451C181.998 459.284 188.714 466 196.998 466Z" fill="#ECF2FF"/>
<path d="M406.998 286C398.707 286 391.998 279.291 391.998 271V211C391.998 202.709 398.707 196 406.998 196C415.289 196 421.998 202.709 421.998 211V271C421.998 279.291 415.289 286 406.998 286Z" fill="#D9E5FF"/>
<path d="M226.998 286C218.707 286 211.998 279.291 211.998 271V211C211.998 202.709 218.707 196 226.998 196C235.289 196 241.998 202.709 241.998 211V271C241.998 279.291 235.289 286 226.998 286Z" fill="#ECF2FF"/>
<path d="M316.998 286C308.707 286 301.998 279.291 301.998 271V211C301.998 202.709 308.707 196 316.998 196C325.289 196 331.998 202.709 331.998 211V271C331.998 279.291 325.289 286 316.998 286Z" fill="#ECF2FF"/>
<path d="M331.998 271V211C331.998 202.709 325.289 196 316.998 196V286C325.289 286 331.998 279.291 331.998 271Z" fill="#D9E5FF"/>
</g>
<defs>
<clipPath id="clip0">
<rect width="512" height="512" fill="white"/>
</clipPath>
</defs>
</svg>
