<svg id="Capa_1" enable-background="new 0 0 512 512" height="512" viewBox="0 0 512 512" width="512" xmlns="http://www.w3.org/2000/svg"><g><g><path d="m316.998 166h-150c-8.291 0-15-6.709-15-15v-60c0-8.291 6.709-15 15-15h150c8.291 0 15 6.709 15 15v60c0 8.291-6.709 15-15 15z" fill="#ffd580"/></g><path d="m417.603 20.395c-5.859-5.859-15.352-5.859-21.211 0l-19.395 19.395-19.395-19.395c-5.859-5.859-15.352-5.859-21.211 0s-5.859 15.352 0 21.211l30 30c2.93 2.93 6.768 4.395 10.605 4.395s7.676-1.465 10.605-4.395l30-30c5.862-5.86 5.862-15.352.002-21.211z" fill="#f24973"/><path d="m387.603 71.605 30-30c5.859-5.859 5.859-15.352 0-21.211s-15.352-5.859-21.211 0l-19.395 19.395v36.211c3.839 0 7.677-1.465 10.606-4.395z" fill="#d92c49"/><g><path d="m436.998 166h-120c-8.291 0-15-6.709-15-15v-90c0-8.291 6.709-15 15-15h120c8.291 0 15 6.709 15 15v90c0 8.291-6.709 15-15 15z" fill="#8ae68a"/></g><path d="m436.998 46h-60v120h60c8.291 0 15-6.709 15-15v-90c0-8.291-6.709-15-15-15z" fill="#60bf80"/><g><g><g><path d="m90.059 135.996-24.516-89.996h-50.543c-8.291 0-15-6.709-15-15s6.709-15 15-15h61.998c6.768 0 12.686 4.526 14.473 11.06l32.695 120z" fill="#80334d"/></g></g></g><path d="m406.998 406h-240c-8.262 0-15-6.724-15-15 0-7.749 5.801-14.165 13.477-14.927 8.232-.82 14.268-8.174 13.418-16.421-.791-8.232-8.174-13.96-16.406-13.433-23.086 2.3-40.488 21.548-40.488 44.78 0 24.814 20.186 45 45 45h240c8.291 0 15-6.709 15-15s-6.71-14.999-15.001-14.999z" fill="#80334d"/><path d="m406.998 406h-90v30h90c8.291 0 15-6.709 15-15s-6.709-15-15-15z" fill="#59243f"/><g><path d="m166.998 375.707c-6.709 0-12.686-4.468-14.473-11.045l-62.484-228.662h406.957c4.395 0 8.584 1.934 11.455 5.303 2.842 3.369 4.072 7.808 3.34 12.158l-30 180c-1.113 6.694-6.562 11.792-13.33 12.466-343.553 33.991-297.863 29.78-301.465 29.78z" fill="#f24973"/></g><path d="m496.998 136h-180v224.938c39.391-3.913 88.911-8.822 151.465-15.011 6.768-.674 12.217-5.771 13.33-12.466l30-180c.732-4.351-.498-8.789-3.34-12.158-2.871-3.369-7.061-5.303-11.455-5.303z" fill="#d92c49"/><g id="Trolley_2_"><g><g><path d="m406.998 496c-24.814 0-45-20.186-45-45s20.186-45 45-45 45 20.186 45 45-20.186 45-45 45z" fill="#59243f"/><circle cx="406.998" cy="451" fill="#d9e5ff" r="15"/></g><g><path d="m196.998 496c-24.814 0-45-20.186-45-45s20.186-45 45-45 45 20.186 45 45-20.186 45-45 45z" fill="#80334d"/><circle cx="196.998" cy="451" fill="#ecf2ff" r="15"/></g></g><g><path d="m406.998 286c-8.291 0-15-6.709-15-15v-60c0-8.291 6.709-15 15-15s15 6.709 15 15v60c0 8.291-6.709 15-15 15z" fill="#d9e5ff"/></g><g><path d="m226.998 286c-8.291 0-15-6.709-15-15v-60c0-8.291 6.709-15 15-15s15 6.709 15 15v60c0 8.291-6.709 15-15 15z" fill="#ecf2ff"/></g></g><g><path d="m316.998 286c-8.291 0-15-6.709-15-15v-60c0-8.291 6.709-15 15-15s15 6.709 15 15v60c0 8.291-6.709 15-15 15z" fill="#ecf2ff"/></g><path d="m331.998 271v-60c0-8.291-6.709-15-15-15v90c8.291 0 15-6.709 15-15z" fill="#d9e5ff"/></g></svg>